<mxfile host="drawio-plugin" modified="2024-10-05T06:57:22.739Z" agent="5.0 (Macintosh; Intel Mac OS X 10_15_7) AppleWebKit/537.36 (KHTML, like Gecko) Chrome/122.0.0.0 Safari/537.36" etag="tPlkM7d5Q0Mzi3a3lM-Y" version="20.5.3" type="embed"><diagram id="FreObkA7JcfvoB75FUKa" name="Page-1"><mxGraphModel dx="1494" dy="693" grid="1" gridSize="10" guides="1" tooltips="1" connect="1" arrows="1" fold="1" page="1" pageScale="1" pageWidth="850" pageHeight="1100" math="0" shadow="0"><root><mxCell id="0"/><mxCell id="1" parent="0"/><mxCell id="106" style="edgeStyle=orthogonalEdgeStyle;rounded=0;orthogonalLoop=1;jettySize=auto;html=1;entryX=0;entryY=0.5;entryDx=0;entryDy=0;" parent="1" source="3" target="31" edge="1"><mxGeometry relative="1" as="geometry"/></mxCell><mxCell id="3" value="" style="rounded=0;whiteSpace=wrap;html=1;" parent="1" vertex="1"><mxGeometry x="70" y="240" width="220" height="530" as="geometry"/></mxCell><mxCell id="4" value="app" style="rounded=0;whiteSpace=wrap;html=1;" parent="1" vertex="1"><mxGeometry x="150" y="300" width="110" height="30" as="geometry"/></mxCell><mxCell id="21" style="edgeStyle=orthogonalEdgeStyle;rounded=0;orthogonalLoop=1;jettySize=auto;html=1;exitX=0.5;exitY=1;exitDx=0;exitDy=0;entryX=0.5;entryY=0;entryDx=0;entryDy=0;" parent="1" source="6" target="8" edge="1"><mxGeometry relative="1" as="geometry"/></mxCell><mxCell id="6" value="101" style="rounded=0;whiteSpace=wrap;html=1;" parent="1" vertex="1"><mxGeometry x="100" y="300" width="50" height="30" as="geometry"/></mxCell><mxCell id="7" value="log" style="rounded=0;whiteSpace=wrap;html=1;" parent="1" vertex="1"><mxGeometry x="150" y="360" width="110" height="30" as="geometry"/></mxCell><mxCell id="22" style="edgeStyle=orthogonalEdgeStyle;rounded=0;orthogonalLoop=1;jettySize=auto;html=1;entryX=0.5;entryY=0;entryDx=0;entryDy=0;" parent="1" source="8" target="10" edge="1"><mxGeometry relative="1" as="geometry"/></mxCell><mxCell id="8" value="101" style="rounded=0;whiteSpace=wrap;html=1;" parent="1" vertex="1"><mxGeometry x="100" y="360" width="50" height="30" as="geometry"/></mxCell><mxCell id="9" value="trace" style="rounded=0;whiteSpace=wrap;html=1;" parent="1" vertex="1"><mxGeometry x="150" y="420" width="110" height="30" as="geometry"/></mxCell><mxCell id="23" style="edgeStyle=orthogonalEdgeStyle;rounded=0;orthogonalLoop=1;jettySize=auto;html=1;exitX=0.5;exitY=1;exitDx=0;exitDy=0;entryX=0.5;entryY=0;entryDx=0;entryDy=0;" parent="1" source="10" target="12" edge="1"><mxGeometry relative="1" as="geometry"/></mxCell><mxCell id="10" value="101" style="rounded=0;whiteSpace=wrap;html=1;" parent="1" vertex="1"><mxGeometry x="100" y="420" width="50" height="30" as="geometry"/></mxCell><mxCell id="11" value="gin/restful" style="rounded=0;whiteSpace=wrap;html=1;" parent="1" vertex="1"><mxGeometry x="150" y="480" width="110" height="30" as="geometry"/></mxCell><mxCell id="24" style="edgeStyle=orthogonalEdgeStyle;rounded=0;orthogonalLoop=1;jettySize=auto;html=1;entryX=0.5;entryY=0;entryDx=0;entryDy=0;" parent="1" source="12" target="14" edge="1"><mxGeometry relative="1" as="geometry"/></mxCell><mxCell id="12" value="101" style="rounded=0;whiteSpace=wrap;html=1;" parent="1" vertex="1"><mxGeometry x="100" y="480" width="50" height="30" as="geometry"/></mxCell><mxCell id="13" value="datasource" style="rounded=0;whiteSpace=wrap;html=1;" parent="1" vertex="1"><mxGeometry x="150" y="540" width="110" height="30" as="geometry"/></mxCell><mxCell id="25" style="edgeStyle=orthogonalEdgeStyle;rounded=0;orthogonalLoop=1;jettySize=auto;html=1;" parent="1" source="14" target="16" edge="1"><mxGeometry relative="1" as="geometry"/></mxCell><mxCell id="14" value="101" style="rounded=0;whiteSpace=wrap;html=1;" parent="1" vertex="1"><mxGeometry x="100" y="540" width="50" height="30" as="geometry"/></mxCell><mxCell id="15" value="coros&amp;nbsp; gin/restful" style="rounded=0;whiteSpace=wrap;html=1;" parent="1" vertex="1"><mxGeometry x="150" y="600" width="110" height="30" as="geometry"/></mxCell><mxCell id="27" style="edgeStyle=orthogonalEdgeStyle;rounded=0;orthogonalLoop=1;jettySize=auto;html=1;entryX=0.5;entryY=0;entryDx=0;entryDy=0;" parent="1" source="16" target="18" edge="1"><mxGeometry relative="1" as="geometry"/></mxCell><mxCell id="16" value="101" style="rounded=0;whiteSpace=wrap;html=1;" parent="1" vertex="1"><mxGeometry x="100" y="600" width="50" height="30" as="geometry"/></mxCell><mxCell id="17" value="grpc" style="rounded=0;whiteSpace=wrap;html=1;" parent="1" vertex="1"><mxGeometry x="150" y="660" width="110" height="30" as="geometry"/></mxCell><mxCell id="28" style="edgeStyle=orthogonalEdgeStyle;rounded=0;orthogonalLoop=1;jettySize=auto;html=1;" parent="1" source="18" target="20" edge="1"><mxGeometry relative="1" as="geometry"/></mxCell><mxCell id="18" value="101" style="rounded=0;whiteSpace=wrap;html=1;" parent="1" vertex="1"><mxGeometry x="100" y="660" width="50" height="30" as="geometry"/></mxCell><mxCell id="19" value="http Serv" style="rounded=0;whiteSpace=wrap;html=1;" parent="1" vertex="1"><mxGeometry x="150" y="720" width="110" height="30" as="geometry"/></mxCell><mxCell id="20" value="101" style="rounded=0;whiteSpace=wrap;html=1;" parent="1" vertex="1"><mxGeometry x="100" y="720" width="50" height="30" as="geometry"/></mxCell><mxCell id="30" value="&lt;h1&gt;&lt;span style=&quot;background-color: initial;&quot;&gt;Config Ns&amp;nbsp;&lt;/span&gt;&lt;/h1&gt;" style="text;html=1;strokeColor=none;fillColor=none;spacing=5;spacingTop=-20;whiteSpace=wrap;overflow=hidden;rounded=0;" parent="1" vertex="1"><mxGeometry x="110" y="250" width="130" height="40" as="geometry"/></mxCell><mxCell id="107" style="edgeStyle=orthogonalEdgeStyle;rounded=0;orthogonalLoop=1;jettySize=auto;html=1;entryX=0;entryY=0.5;entryDx=0;entryDy=0;" parent="1" source="31" target="56" edge="1"><mxGeometry relative="1" as="geometry"/></mxCell><mxCell id="31" value="" style="rounded=0;whiteSpace=wrap;html=1;" parent="1" vertex="1"><mxGeometry x="360" y="240" width="220" height="530" as="geometry"/></mxCell><mxCell id="55" value="&lt;h1&gt;&lt;span style=&quot;background-color: initial;&quot;&gt;Default Ns&amp;nbsp;&lt;/span&gt;&lt;/h1&gt;" style="text;html=1;strokeColor=none;fillColor=none;spacing=5;spacingTop=-20;whiteSpace=wrap;overflow=hidden;rounded=0;" parent="1" vertex="1"><mxGeometry x="400" y="250" width="150" height="40" as="geometry"/></mxCell><mxCell id="108" style="edgeStyle=orthogonalEdgeStyle;rounded=0;orthogonalLoop=1;jettySize=auto;html=1;entryX=0;entryY=0.5;entryDx=0;entryDy=0;" parent="1" source="56" target="81" edge="1"><mxGeometry relative="1" as="geometry"/></mxCell><mxCell id="56" value="" style="rounded=0;whiteSpace=wrap;html=1;" parent="1" vertex="1"><mxGeometry x="650" y="240" width="220" height="530" as="geometry"/></mxCell><mxCell id="57" value="app01" style="rounded=0;whiteSpace=wrap;html=1;" parent="1" vertex="1"><mxGeometry x="730" y="300" width="110" height="30" as="geometry"/></mxCell><mxCell id="59" value="301" style="rounded=0;whiteSpace=wrap;html=1;" parent="1" vertex="1"><mxGeometry x="680" y="300" width="50" height="30" as="geometry"/></mxCell><mxCell id="80" value="&lt;h1&gt;&lt;span style=&quot;background-color: initial;&quot;&gt;Controller NS&lt;/span&gt;&lt;/h1&gt;" style="text;html=1;strokeColor=none;fillColor=none;spacing=5;spacingTop=-20;whiteSpace=wrap;overflow=hidden;rounded=0;" parent="1" vertex="1"><mxGeometry x="675" y="250" width="170" height="40" as="geometry"/></mxCell><mxCell id="81" value="" style="rounded=0;whiteSpace=wrap;html=1;" parent="1" vertex="1"><mxGeometry x="960" y="240" width="220" height="530" as="geometry"/></mxCell><mxCell id="82" value="app01" style="rounded=0;whiteSpace=wrap;html=1;" parent="1" vertex="1"><mxGeometry x="1040" y="300" width="110" height="30" as="geometry"/></mxCell><mxCell id="83" style="edgeStyle=orthogonalEdgeStyle;rounded=0;orthogonalLoop=1;jettySize=auto;html=1;exitX=0.5;exitY=1;exitDx=0;exitDy=0;entryX=0.5;entryY=0;entryDx=0;entryDy=0;" parent="1" source="84" target="87" edge="1"><mxGeometry relative="1" as="geometry"/></mxCell><mxCell id="84" value="401" style="rounded=0;whiteSpace=wrap;html=1;" parent="1" vertex="1"><mxGeometry x="990" y="300" width="50" height="30" as="geometry"/></mxCell><mxCell id="85" value="metric" style="rounded=0;whiteSpace=wrap;html=1;" parent="1" vertex="1"><mxGeometry x="1040" y="360" width="110" height="30" as="geometry"/></mxCell><mxCell id="86" style="edgeStyle=orthogonalEdgeStyle;rounded=0;orthogonalLoop=1;jettySize=auto;html=1;entryX=0.5;entryY=0;entryDx=0;entryDy=0;" parent="1" source="87" target="90" edge="1"><mxGeometry relative="1" as="geometry"/></mxCell><mxCell id="87" value="402" style="rounded=0;whiteSpace=wrap;html=1;" parent="1" vertex="1"><mxGeometry x="990" y="360" width="50" height="30" as="geometry"/></mxCell><mxCell id="88" value="health" style="rounded=0;whiteSpace=wrap;html=1;" parent="1" vertex="1"><mxGeometry x="1040" y="420" width="110" height="30" as="geometry"/></mxCell><mxCell id="89" style="edgeStyle=orthogonalEdgeStyle;rounded=0;orthogonalLoop=1;jettySize=auto;html=1;exitX=0.5;exitY=1;exitDx=0;exitDy=0;entryX=0.5;entryY=0;entryDx=0;entryDy=0;" parent="1" source="90" target="93" edge="1"><mxGeometry relative="1" as="geometry"/></mxCell><mxCell id="90" value="403" style="rounded=0;whiteSpace=wrap;html=1;" parent="1" vertex="1"><mxGeometry x="990" y="420" width="50" height="30" as="geometry"/></mxCell><mxCell id="91" value="swagger" style="rounded=0;whiteSpace=wrap;html=1;" parent="1" vertex="1"><mxGeometry x="1040" y="480" width="110" height="30" as="geometry"/></mxCell><mxCell id="112" style="edgeStyle=orthogonalEdgeStyle;rounded=0;orthogonalLoop=1;jettySize=auto;html=1;exitX=0.5;exitY=1;exitDx=0;exitDy=0;entryX=0.5;entryY=0;entryDx=0;entryDy=0;" parent="1" source="93" target="111" edge="1"><mxGeometry relative="1" as="geometry"/></mxCell><mxCell id="93" value="404" style="rounded=0;whiteSpace=wrap;html=1;" parent="1" vertex="1"><mxGeometry x="990" y="480" width="50" height="30" as="geometry"/></mxCell><mxCell id="105" value="&lt;h1&gt;&lt;span style=&quot;background-color: initial;&quot;&gt;Apis Ns&amp;nbsp;&lt;/span&gt;&lt;/h1&gt;" style="text;html=1;strokeColor=none;fillColor=none;spacing=5;spacingTop=-20;whiteSpace=wrap;overflow=hidden;rounded=0;" parent="1" vertex="1"><mxGeometry x="1010" y="250" width="110" height="40" as="geometry"/></mxCell><mxCell id="109" value="优先级 1" style="text;html=1;strokeColor=none;fillColor=none;align=center;verticalAlign=middle;whiteSpace=wrap;rounded=0;" parent="1" vertex="1"><mxGeometry x="125" y="200" width="100" height="30" as="geometry"/></mxCell><mxCell id="110" value="..." style="rounded=0;whiteSpace=wrap;html=1;" parent="1" vertex="1"><mxGeometry x="1040" y="700" width="110" height="30" as="geometry"/></mxCell><mxCell id="111" value="499" style="rounded=0;whiteSpace=wrap;html=1;" parent="1" vertex="1"><mxGeometry x="990" y="700" width="50" height="30" as="geometry"/></mxCell><mxCell id="113" value="优先级 2" style="text;html=1;strokeColor=none;fillColor=none;align=center;verticalAlign=middle;whiteSpace=wrap;rounded=0;" parent="1" vertex="1"><mxGeometry x="420" y="200" width="100" height="30" as="geometry"/></mxCell><mxCell id="114" value="优先级 3" style="text;html=1;strokeColor=none;fillColor=none;align=center;verticalAlign=middle;whiteSpace=wrap;rounded=0;" parent="1" vertex="1"><mxGeometry x="710" y="200" width="100" height="30" as="geometry"/></mxCell><mxCell id="115" value="优先级 4" style="text;html=1;strokeColor=none;fillColor=none;align=center;verticalAlign=middle;whiteSpace=wrap;rounded=0;" parent="1" vertex="1"><mxGeometry x="1020" y="200" width="100" height="30" as="geometry"/></mxCell><mxCell id="116" value="&lt;h1&gt;注意&lt;/h1&gt;&lt;p&gt;controller、apis 名称空间的所有对象，如果不覆盖 Priority() 方法则默认优先级是0.&lt;/p&gt;&lt;p&gt;意味着用户实现的所有对象，将在这两个名称空间中最先进行加载&lt;/p&gt;&lt;p&gt;在有强依赖关系的多模块环境下需要注意&lt;/p&gt;" style="text;html=1;strokeColor=none;fillColor=none;spacing=5;spacingTop=-20;whiteSpace=wrap;overflow=hidden;rounded=0;" vertex="1" parent="1"><mxGeometry x="80" y="50" width="470" height="140" as="geometry"/></mxCell></root></mxGraphModel></diagram></mxfile>